<?xml version="1.0" encoding="UTF-8"?>
<svg xmlns="http://www.w3.org/2000/svg" xmlns:xlink="http://www.w3.org/1999/xlink" width="42px" height="42px" viewBox="0 0 42 42">
  <!-- Generator: Sketch 43.2 (39069) - http://www.bohemiancoding.com/sketch -->
  <title>icon_youtube</title>
  <desc>Created with Sketch.</desc>
  <defs></defs>
  <g id="homepage" stroke="none" stroke-width="1" fill="none" fill-rule="evenodd">
    <g id="social_medias" fill="#F39A1E">
      <g id="icon_youtube">
        <path d="M21,42 C9.40202025,42 0,32.5979797 0,21 C0,9.40202025 9.40202025,0 21,0 C32.5979797,0 42,9.40202025 42,21 C42,32.5979797 32.5979797,42 21,42 Z M19.0247667,23.9507407 L19.0247667,17.5589632 L25.1715633,20.7659874 L19.0247667,23.9507407 Z M32.5215061,16.4516712 C32.5215061,16.4516712 32.2992193,14.8840377 31.6171698,14.1937034 C30.7521196,13.28763 29.7824847,13.2831535 29.3378219,13.230104 C26.1544717,13 21.3792793,13 21.3792793,13 L21.369391,13 C21.369391,13 16.59431,13 13.4108485,13.230104 C12.9661634,13.2831535 11.9968848,13.28763 11.1315005,14.1937034 C10.4494511,14.8840377 10.2274983,16.4516712 10.2274983,16.4516712 C10.2274983,16.4516712 10,18.29257 10,20.133491 L10,21.8593377 C10,23.7002142 10.2274983,25.541113 10.2274983,25.541113 C10.2274983,25.541113 10.4494511,27.1087688 11.1315005,27.799103 C11.9968848,28.7051542 13.1335745,28.6765137 13.6398612,28.7714772 C15.4598029,28.9459928 21.3743574,29 21.3743574,29 C21.3743574,29 26.1544717,28.9928065 29.3378219,28.7626802 C29.7824847,28.7096529 30.7521196,28.7051542 31.6171698,27.799103 C32.2992193,27.1087688 32.5215061,25.541113 32.5215061,25.541113 C32.5215061,25.541113 32.7486926,23.7002142 32.7486926,21.8593377 L32.7486926,20.133491 C32.7486926,18.29257 32.5215061,16.4516712 32.5215061,16.4516712 Z" id="Combined-Shape"></path>
      </g>
    </g>
  </g>
</svg>
